<svg id="Twitter" xmlns="http://www.w3.org/2000/svg" width="40" height="40" viewBox="0 0 40 40">
  <circle id="楕円形_40" data-name="楕円形 40" cx="20" cy="20" r="20" fill="#f8b62b"/>
  <g id="Twitter-2" data-name="Twitter" transform="translate(8 10)">
    <path id="パス_2" data-name="パス 2" d="M45.917,22.278A14.454,14.454,0,0,0,60.5,7.694V7A11.29,11.29,0,0,0,63,4.361a11.53,11.53,0,0,1-2.917.833,5.4,5.4,0,0,0,2.222-2.778,12.739,12.739,0,0,1-3.194,1.25A4.96,4.96,0,0,0,55.361,2a5.218,5.218,0,0,0-5.139,5.139,2.708,2.708,0,0,0,.139,1.111A14.36,14.36,0,0,1,39.806,2.833a5.319,5.319,0,0,0-.694,2.639,5.518,5.518,0,0,0,2.222,4.306,4.682,4.682,0,0,1-2.361-.694h0a5.076,5.076,0,0,0,4.167,5,4.282,4.282,0,0,1-1.389.139,2.364,2.364,0,0,1-.972-.139,5.262,5.262,0,0,0,4.861,3.611,10.486,10.486,0,0,1-6.389,2.222A3.845,3.845,0,0,1,38,19.778a13.109,13.109,0,0,0,7.917,2.5" transform="translate(-38 -2)" fill="#f9f8f5" fill-rule="evenodd"/>
  </g>
</svg>
